<?xml version="1.0" encoding="iso-8859-1"?>
<!-- Generator: Adobe Illustrator 19.0.0, SVG Export Plug-In . SVG Version: 6.00 Build 0)  -->
<svg version="1.1" id="Capa_1" xmlns="http://www.w3.org/2000/svg" xmlns:xlink="http://www.w3.org/1999/xlink" x="0px" y="0px"
	 viewBox="0 0 368.554 368.554" style="enable-background:new 0 0 368.554 368.554;" xml:space="preserve">
<g>
	<path d="M292.371,17.347h-44.344V0h-127.5v17.347H76.183c-20.005,0-36.281,16.275-36.281,36.281v278.646
		c0,20.005,16.275,36.281,36.281,36.281h216.188c20.005,0,36.281-16.275,36.281-36.281V53.627
		C328.652,33.622,312.376,17.347,292.371,17.347z M135.527,15h97.5v19.693h-97.5V15z M313.652,332.273
		c0,11.734-9.546,21.281-21.281,21.281H76.183c-11.734,0-21.281-9.546-21.281-21.281V53.627c0-11.734,9.546-21.281,21.281-21.281
		h44.344v17.347h127.5V32.347h44.344c11.734,0,21.281,9.546,21.281,21.281V332.273z"/>
	<path d="M249.473,169.358l-7.8,11.849c-1.11,1.686-2.794,1.882-3.467,1.888c-0.691,0.001-2.36-0.161-3.5-1.826l-0.217-0.317
		c-3.948-5.77-10.465-8.865-17.431-8.29c-6.967,0.579-12.883,4.711-15.824,11.053l-4.166,8.982
		c-1.124,2.426-3.309,2.496-4.194,2.412c-0.887-0.083-3.02-0.555-3.677-3.146l-9.067-35.742c-2.199-8.67-9.665-14.475-18.598-14.475
		c-0.036,0-0.071,0-0.107,0c-8.98,0.046-16.437,5.941-18.554,14.668l-8.178,33.702c-0.642,2.646-2.813,3.112-3.716,3.19
		c-0.901,0.076-3.122-0.009-4.208-2.507l-8.062-18.541c-3.048-7.012-9.958-11.542-17.603-11.542H79.485v15h21.619
		c1.671,0,3.181,0.99,3.847,2.523l8.062,18.541c3.343,7.688,10.895,12.188,19.253,11.47c8.353-0.721,15.027-6.451,17.003-14.598
		l8.178-33.702c0.698-2.878,3.068-3.201,4.055-3.206c1.025,0.004,3.36,0.293,4.088,3.164l9.066,35.742
		c2.024,7.979,8.628,13.629,16.825,14.393c0.624,0.059,1.243,0.087,1.857,0.087c7.461,0,14.138-4.223,17.337-11.123l4.166-8.982
		c0.927-1.998,2.727-2.354,3.458-2.416c0.728-0.056,2.565-0.006,3.809,1.812l0.217,0.317c3.586,5.241,9.498,8.356,15.84,8.355
		c0.058,0,0.116,0,0.173,0c6.408-0.057,12.338-3.287,15.861-8.64l7.801-11.849c0.778-1.182,2.088-1.888,3.503-1.888h23.563v-15
		h-23.563C259.028,160.718,253.034,163.948,249.473,169.358z"/>
	<rect x="79.485" y="271.777" width="84.688" height="15"/>
	<rect x="79.485" y="308.443" width="169.375" height="15"/>
</g>
<g>
</g>
<g>
</g>
<g>
</g>
<g>
</g>
<g>
</g>
<g>
</g>
<g>
</g>
<g>
</g>
<g>
</g>
<g>
</g>
<g>
</g>
<g>
</g>
<g>
</g>
<g>
</g>
<g>
</g>
</svg>
