<?xml version="1.0" encoding="iso-8859-1"?>
<!-- Generator: Adobe Illustrator 16.0.0, SVG Export Plug-In . SVG Version: 6.00 Build 0)  -->
<!DOCTYPE svg PUBLIC "-//W3C//DTD SVG 1.1//EN" "http://www.w3.org/Graphics/SVG/1.1/DTD/svg11.dtd">
<svg version="1.1" id="Capa_1" xmlns="http://www.w3.org/2000/svg" xmlns:xlink="http://www.w3.org/1999/xlink" x="0px" y="0px"
	 width="31.387px" height="31.386px" viewBox="0 0 31.387 31.386" style="enable-background:new 0 0 31.387 31.386;"
	 xml:space="preserve">
<g>
	<g>
		<path d="M26.018,27.015l3.744-15.817l-11.07-1.085l0.56-0.837l-2.134-2.642l0.865-0.699l1.513,1.874l-0.433,0.349l1.279,1.585
			l1.344-1.086l-1.277-1.584L20.12,7.304l-1.515-1.873l0.528-0.426L18.48,4.194L6.762,13.658l0.653,0.811l1.777-1.435l2.134,2.642
			l0.41-0.171l-1.283,6.733l-0.001-0.001L0.228,23.751l13.641,4.896L26.018,27.015z M12.704,15.104l3.675-1.524l1.602-2.402
			l10.08,1.185l-3.156,13.324l-13.51-3.822L12.704,15.104z M10.474,26.737l-3.349-1.277l1.615-0.216l3.756,1.253L10.474,26.737z"/>
		<polygon points="26.814,27.569 13.824,29.468 13.824,29.463 0,24.405 0,25.19 13.73,30.441 27.52,28.249 31.387,12.228 
			30.547,11.645 		"/>
		<path d="M5.344,20.411c0.295-0.069,0.564-0.191,0.806-0.35l0.433,0.321l0.257-0.346l2.147,1.592l0.623-0.842l-2.148-1.591
			l0.208-0.281l-0.442-0.327c0.112-0.405,0.127-0.846,0.022-1.281c-0.332-1.382-1.724-2.237-3.106-1.905
			c-1.382,0.33-2.235,1.723-1.905,3.104C2.569,19.887,3.962,20.742,5.344,20.411z M4.394,16.447c0.806-0.192,1.616,0.306,1.809,1.11
			c0.193,0.805-0.304,1.615-1.109,1.807C4.29,19.557,3.48,19.06,3.286,18.255C3.092,17.451,3.591,16.64,4.394,16.447z"/>
		<path d="M22.182,4.589c0.387,0.465,0.969,0.763,1.619,0.766c0.004,0,0.008,0.001,0.01,0.001l0,0h0.002
			c0.658,0,1.244-0.298,1.635-0.767c0.037-0.042,0.068-0.087,0.103-0.132c0.246-0.348,0.392-0.771,0.392-1.227
			s-0.146-0.878-0.392-1.226c-0.032-0.045-0.065-0.089-0.103-0.133c-0.391-0.468-0.977-0.767-1.633-0.767h-0.004l0,0
			c-0.002,0-0.006,0-0.01,0c-0.65,0.004-1.232,0.301-1.619,0.767c-0.037,0.043-0.07,0.088-0.104,0.133
			c-0.245,0.347-0.393,0.77-0.393,1.226s0.146,0.879,0.393,1.227C22.111,4.502,22.145,4.547,22.182,4.589z M24.419,5.086
			c0.198-0.19,0.363-0.469,0.478-0.804c0.152,0.057,0.291,0.125,0.408,0.203C25.073,4.76,24.77,4.971,24.419,5.086z M25.407,4.352
			c-0.134-0.091-0.29-0.169-0.462-0.233c0.061-0.226,0.101-0.473,0.111-0.731h0.7C25.729,3.744,25.604,4.074,25.407,4.352z
			 M25.766,3.213h-0.705c-0.002-0.311-0.043-0.605-0.115-0.871c0.173-0.064,0.328-0.143,0.463-0.233
			C25.63,2.422,25.762,2.802,25.766,3.213z M25.305,1.977c-0.117,0.077-0.256,0.146-0.408,0.202
			c-0.113-0.335-0.278-0.614-0.478-0.804C24.77,1.49,25.074,1.701,25.305,1.977z M23.9,1.287c0.354,0.054,0.66,0.421,0.832,0.946
			c-0.25,0.074-0.531,0.119-0.832,0.126V1.287z M23.9,2.534c0.315-0.008,0.615-0.056,0.879-0.136
			c0.066,0.247,0.104,0.523,0.105,0.815H23.9V2.534z M23.9,3.387h0.98c-0.01,0.24-0.045,0.469-0.102,0.676
			c-0.266-0.08-0.563-0.129-0.881-0.137V3.387H23.9z M23.9,4.102c0.301,0.007,0.582,0.052,0.832,0.126
			C24.561,4.753,24.254,5.12,23.9,5.174V4.102z M22.32,4.485c0.117-0.077,0.254-0.144,0.4-0.2c0.112,0.33,0.274,0.606,0.471,0.795
			C22.85,4.964,22.55,4.756,22.32,4.485z M23.727,5.176c-0.356-0.05-0.666-0.417-0.842-0.945c0.252-0.076,0.537-0.122,0.842-0.129
			V5.176z M23.727,3.926c-0.318,0.008-0.623,0.059-0.891,0.141c-0.055-0.209-0.091-0.438-0.102-0.68h0.992V3.926L23.727,3.926z
			 M23.727,3.213h-0.994c0-0.293,0.039-0.57,0.104-0.819c0.269,0.082,0.571,0.132,0.89,0.14V3.213z M23.727,1.285v1.074
			c-0.305-0.008-0.588-0.053-0.842-0.128C23.061,1.701,23.369,1.335,23.727,1.285z M23.191,1.38
			c-0.195,0.189-0.357,0.465-0.471,0.795c-0.148-0.055-0.283-0.122-0.4-0.199C22.55,1.706,22.85,1.497,23.191,1.38z M22.219,2.109
			c0.133,0.089,0.285,0.166,0.454,0.229c-0.071,0.266-0.114,0.563-0.116,0.875h-0.695C21.865,2.802,21.998,2.422,22.219,2.109z
			 M22.561,3.387c0.013,0.261,0.051,0.509,0.112,0.735c-0.169,0.063-0.321,0.14-0.454,0.229c-0.195-0.278-0.32-0.608-0.35-0.965
			L22.561,3.387L22.561,3.387z"/>
		<path d="M25.768,7.632l-0.318,0.55l-0.816,0.327l0.414,1.033l0.816-0.329l0.609,0.178l2.748-1.104l0.243,0.608l0.829-0.333
			L30.044,7.94l1.343-0.54l-0.695-1.73l-1.344,0.538l-0.272-0.68l-0.829,0.333l0.27,0.669L25.768,7.632z M29.124,8.05l-2.665,1.07
			L25.85,8.944L25.188,9.21l-0.224-0.559l0.66-0.266l0.319-0.549l2.666-1.071L29.124,8.05z"/>
		<path d="M12.38,2.958c0.552-0.092,0.924-0.616,0.831-1.167c-0.092-0.55-0.615-0.924-1.167-0.831
			c-0.55,0.092-0.923,0.616-0.832,1.166C11.307,2.678,11.829,3.051,12.38,2.958z M12.132,1.48c0.266-0.044,0.516,0.134,0.561,0.4
			c0.045,0.264-0.135,0.516-0.399,0.561s-0.517-0.135-0.561-0.399C11.688,1.775,11.868,1.524,12.132,1.48z"/>
		<path d="M12.43,3.245c-0.553,0.092-0.925,0.616-0.832,1.167c0.092,0.55,0.615,0.923,1.167,0.83
			c0.551-0.092,0.924-0.616,0.829-1.166C13.502,3.525,12.979,3.153,12.43,3.245z M13.075,4.163c0.046,0.265-0.133,0.516-0.399,0.561
			c-0.264,0.044-0.516-0.136-0.56-0.4c-0.045-0.264,0.134-0.516,0.399-0.56C12.78,3.719,13.031,3.898,13.075,4.163z"/>
		<path d="M10.605,3.397L9.128,5.528l1.175-0.197l1.481-2.129L9.693,1.67l-1.2,0.097l2.116,1.63H10.605z M11.048,3.027
			c0.141-0.025,0.274,0.071,0.299,0.211c0.024,0.141-0.07,0.274-0.212,0.299c-0.142,0.023-0.274-0.071-0.297-0.212
			C10.813,3.183,10.908,3.049,11.048,3.027z"/>
		<path d="M25.076,14.425l-4.678-0.66l0.291,1.34l0.66,0.062l0.297,1.378l-0.58,0.314l0.3,1.383l3.991-2.513L25.076,14.425z
			 M22.518,16.076l-0.176-0.82l1.424,0.13l0.004,0.012L22.518,16.076z"/>
		<path d="M18.293,20.344c-0.057-0.071-0.122-0.129-0.197-0.176c-0.074-0.047-0.15-0.083-0.229-0.109
			c0.132-0.073,0.236-0.163,0.316-0.27c0.08-0.105,0.119-0.248,0.119-0.427c0-0.089-0.016-0.186-0.044-0.291
			c-0.03-0.104-0.088-0.201-0.173-0.291c-0.083-0.089-0.199-0.163-0.348-0.221c-0.147-0.058-0.338-0.087-0.568-0.087h-1.944v3.549
			h2.015c0.153,0,0.307-0.023,0.456-0.069c0.148-0.046,0.279-0.114,0.396-0.205c0.116-0.089,0.212-0.199,0.281-0.335
			c0.071-0.134,0.106-0.291,0.106-0.47c0-0.128-0.017-0.242-0.051-0.342C18.395,20.501,18.348,20.416,18.293,20.344z M16.318,19.318
			h0.576c0.114,0,0.203,0.02,0.271,0.055c0.068,0.036,0.102,0.1,0.102,0.189c0,0.115-0.031,0.193-0.099,0.232
			c-0.065,0.041-0.157,0.061-0.274,0.061h-0.576V19.318z M17.354,21.009c-0.022,0.043-0.055,0.077-0.095,0.102
			s-0.085,0.042-0.137,0.052c-0.052,0.011-0.104,0.016-0.161,0.016h-0.643v-0.662h0.688c0.254,0,0.381,0.107,0.381,0.323
			C17.387,20.908,17.376,20.965,17.354,21.009z"/>
		<path d="M3.271,9.697c0.216,0.244,0.456,0.44,0.718,0.585c0.261,0.147,0.532,0.234,0.816,0.261c0.281,0.028,0.564-0.006,0.851-0.1
			c0.289-0.094,0.567-0.26,0.836-0.499C6.733,9.73,6.913,9.499,7.03,9.251c0.118-0.247,0.183-0.494,0.195-0.74
			c0.013-0.245-0.021-0.479-0.101-0.703C7.045,7.586,6.932,7.39,6.785,7.223L5.78,8.112c0.054,0.091,0.097,0.182,0.131,0.273
			c0.034,0.092,0.052,0.182,0.054,0.268C5.967,8.74,5.95,8.824,5.915,8.905c-0.036,0.082-0.097,0.16-0.184,0.237
			C5.61,9.249,5.486,9.313,5.358,9.33C5.232,9.349,5.105,9.336,4.98,9.293C4.855,9.248,4.735,9.181,4.617,9.092
			C4.5,9.003,4.391,8.903,4.292,8.791C4.193,8.678,4.107,8.56,4.033,8.432C3.959,8.304,3.908,8.176,3.878,8.047
			C3.85,7.917,3.852,7.791,3.885,7.666C3.92,7.543,3.997,7.427,4.118,7.321C4.224,7.228,4.327,7.172,4.43,7.152
			c0.102-0.019,0.196-0.02,0.283-0.003c0.088,0.018,0.161,0.046,0.225,0.087S5.05,7.31,5.085,7.335l0.993-0.881
			c-0.413-0.379-0.845-0.573-1.297-0.58c-0.45-0.007-0.906,0.192-1.367,0.594C3.155,6.697,2.962,6.943,2.829,7.209
			c-0.131,0.266-0.204,0.54-0.216,0.822C2.601,8.313,2.649,8.597,2.758,8.88C2.87,9.164,3.04,9.435,3.271,9.697z"/>
	</g>
</g>
<g>
</g>
<g>
</g>
<g>
</g>
<g>
</g>
<g>
</g>
<g>
</g>
<g>
</g>
<g>
</g>
<g>
</g>
<g>
</g>
<g>
</g>
<g>
</g>
<g>
</g>
<g>
</g>
<g>
</g>
</svg>
